<svg version="1.1" xmlns="http://www.w3.org/2000/svg" xmlns:xlink="http://www.w3.org/1999/xlink" width="48px" height="48px" viewBox="0,0,256,256"><defs><linearGradient x1="20.375" y1="11.061" x2="28.748" y2="40.946" gradientUnits="userSpaceOnUse" id="color-1"><stop offset="0" stop-color="#dc291e"></stop><stop offset="1" stop-color="#ec7a75"></stop></linearGradient><linearGradient x1="2" y1="16" x2="46" y2="16" gradientUnits="userSpaceOnUse" id="color-2"><stop offset="0" stop-color="#45494d"></stop><stop offset="1" stop-color="#6d7479"></stop></linearGradient><radialGradient cx="24.255" cy="35.043" r="13.813" gradientUnits="userSpaceOnUse" id="color-3"><stop offset="0" stop-color="#000000"></stop><stop offset="1" stop-color="#000000" stop-opacity="0"></stop></radialGradient><linearGradient x1="15.565" y1="26.494" x2="32.435" y2="43.363" gradientUnits="userSpaceOnUse" id="color-4"><stop offset="0" stop-color="#889097"></stop><stop offset="1" stop-color="#64717c"></stop></linearGradient><radialGradient cx="23.935" cy="25.232" r="22.285" gradientUnits="userSpaceOnUse" id="color-5"><stop offset="0" stop-color="#fafafb"></stop><stop offset="1" stop-color="#c8cdd1"></stop></radialGradient></defs><g fill="none" fill-rule="nonzero" stroke="none" stroke-width="1" stroke-linecap="butt" stroke-linejoin="miter" stroke-miterlimit="10" stroke-dasharray="" stroke-dashoffset="0" font-family="none" font-weight="none" font-size="none" text-anchor="none" style="mix-blend-mode: normal"><g transform="scale(5.33333,5.33333)"><path d="M43.125,9h-38.25c-1.588,0 -2.875,1.287 -2.875,2.875v24.25c0,1.588 1.287,2.875 2.875,2.875h38.25c1.588,0 2.875,-1.287 2.875,-2.875v-24.25c0,-1.588 -1.287,-2.875 -2.875,-2.875z" fill="url(#color-1)"></path><rect x="2" y="14" width="44" height="4" fill="url(#color-2)"></rect><path d="M42,24h-36c-0.552,0 -1,-0.448 -1,-1v-2c0,-0.552 0.448,-1 1,-1h36c0.552,0 1,0.448 1,1v2c0,0.552 -0.448,1 -1,1z" fill="#ffffff"></path><path d="M24,21c-7.68,0 -13.929,6.249 -13.929,13.929c0,1.416 0.215,2.783 0.61,4.071h26.637c0.395,-1.289 0.61,-2.655 0.61,-4.071c0.001,-7.68 -6.248,-13.929 -13.928,-13.929z" fill="url(#color-3)"></path><circle cx="24" cy="34.929" r="11.929" fill="url(#color-4)"></circle><circle cx="24" cy="35" r="10" fill="url(#color-5)"></circle><path d="M20.824,37.056c-0.409,0.198 -0.943,0.297 -1.602,0.297c-0.859,0 -1.535,-0.252 -2.027,-0.758c-0.492,-0.506 -0.738,-1.178 -0.738,-2.02c0,-0.896 0.277,-1.623 0.83,-2.18c0.553,-0.557 1.271,-0.836 2.154,-0.836c0.547,0 1.008,0.069 1.383,0.207v1.215c-0.375,-0.224 -0.802,-0.336 -1.281,-0.336c-0.526,0 -0.951,0.166 -1.273,0.496c-0.322,0.33 -0.484,0.779 -0.484,1.344c0,0.542 0.152,0.973 0.457,1.295c0.305,0.322 0.715,0.482 1.23,0.482c0.492,0 0.943,-0.12 1.352,-0.359v1.153z" fill="#4a4f53"></path><path d="M26.465,31.654l-1.93,5.602h-1.43l-1.906,-5.602h1.359l1.168,3.898c0.063,0.211 0.1,0.397 0.113,0.559h0.023c0.018,-0.174 0.059,-0.366 0.121,-0.574l1.16,-3.883z" fill="#4a4f53"></path><path d="M31.801,31.654l-1.93,5.602h-1.43l-1.906,-5.602h1.359l1.168,3.898c0.063,0.211 0.1,0.397 0.113,0.559h0.023c0.018,-0.174 0.059,-0.366 0.121,-0.574l1.16,-3.883z" fill="#4a4f53"></path></g></g></svg>