<?xml version="1.0" encoding="utf-8"?>
<!-- Generator: Adobe Illustrator 16.0.4, SVG Export Plug-In . SVG Version: 6.00 Build 0)  -->
<!DOCTYPE svg PUBLIC "-//W3C//DTD SVG 1.1//EN" "http://www.w3.org/Graphics/SVG/1.1/DTD/svg11.dtd">
<svg version="1.1" id="Layer_1" xmlns="http://www.w3.org/2000/svg" xmlns:xlink="http://www.w3.org/1999/xlink" x="0px" y="0px"
	 width="165.3px" height="38.1px" viewBox="10.1 17 165.3 38.1" style="enable-background:new 10.1 17 165.3 38.1;"
	 xml:space="preserve">
<path style="fill:#FFFFFF;" d="M117.2,26.5c-2.4,2.4-3.5,4.9-3.5,8.3c0,0.2,0,0.4,0,0.6c0,0.4,0,0.7,0,1.1c0,1.1-0.2,1.7-1,2.6
	c-0.7,0.7-1.8,0.7-2.8,0.7h-0.6c-0.7-2.3-1.9-4.9-3.6-6.5c-2.7-2.6-6.2-3.9-10.6-3.9H80.8c0.5-1.6,1.3-3,2.8-4s3-1.5,4.8-1.6h12.5
	v-5.9H88.3C84,18,80.5,19.4,77.7,22c-2.9,2.8-4.4,7.1-4.4,11.7V35h21.6c1.8,0.1,3.3,0.5,4.7,1.4c1.4,0.9,2.1,2.7,2.1,3.3h-35
	c0.4-1.6,0.6-3.7,0.6-6.4v-9.6h-7.4V31c0,1.6,0,5.1-0.4,6.6c-0.4,1.6-1,2.3-2.8,2.3h-3.6c0.4-1.6,0.6-3.7,0.6-6.5v-9.6h-7.4V31
	c0,1.6,0,5.1-0.4,6.6c-0.4,1.6-1,2.3-2.8,2.3H40V23.8h-7.4v16c0,2.5,0.1,5.7-1.9,7.5c-2.5,2.3-6.8,2.2-9.5,0.5
	c-3.1-2-3.9-5.8-3.5-9.2c0.2-1.5,0.5-2.7,1.1-3.7l-7.3-2.4c-0.6,1.3-0.9,2.9-1.2,4.6C8.7,47.9,16.5,57,29.5,54.8
	c0.1,0,0.3,0,0.4-0.1c3.5-0.7,6.8-2.1,8.5-5.3c0.6-1.1,0.9-2.1,1.2-3.1H43c1.1,0,2.1-0.1,3-0.3c1.1-0.2,2.2-0.6,3.2-1.2
	c0.3-0.2,0.5-0.3,0.7-0.5v2.1h6.7c1.1,0,2.1-0.1,3-0.3c1.1-0.2,2.2-0.6,3.2-1.2c0.1-0.1,0.2-0.1,0.3-0.2v1.8h45.2
	c1.8,0,3.4,0,5.2-0.5c0.8-0.2,1.6-0.6,2.3-1c0.6-0.4,1.1-0.8,1.6-1.2c3,2.6,7.6,3.3,11.4,2.1c1.7-0.5,3.1-1.5,4.4-2.7
	c2.1-2.2,3-4.9,3-8c0-3.3-0.9-6-2.9-8.2C129.2,22.3,121.2,22.4,117.2,26.5z M128.3,38.4c-0.9,0.9-2.1,1.5-3.4,1.5
	c-1.3,0-2.5-0.5-3.4-1.5c-0.9-0.9-1.5-2.2-1.5-3.7s0.4-2.7,1.3-3.7c0.9-0.9,2.1-1.5,3.4-1.5s2.5,0.5,3.4,1.5
	c0.9,0.9,1.3,2.2,1.3,3.7C129.7,36.1,129.2,37.3,128.3,38.4z M168,17v29.1h7.4V17H168z M141,46.3h7.4V17H141V46.3z M154.5,39.5
	c0,2.5,0.1,5.7-1.9,7.5c-0.7,0.6-1.6,1-2.5,1.3l4.4,5.5c0.6-0.2,1.2-0.5,1.9-0.7c1.7-0.8,3-2.1,3.9-3.7c1.3-2.6,1.6-4.6,1.6-7.4
	V23.7h-7.4V39.5z"/>
</svg>
