<?xml version="1.0" encoding="utf-8"?>
<!-- Generator: Adobe Illustrator 16.0.0, SVG Export Plug-In . SVG Version: 6.00 Build 0)  -->
<!DOCTYPE svg PUBLIC "-//W3C//DTD SVG 1.1//EN" "http://www.w3.org/Graphics/SVG/1.1/DTD/svg11.dtd">
<svg version="1.1" id="Layer_1" xmlns="http://www.w3.org/2000/svg" xmlns:xlink="http://www.w3.org/1999/xlink" x="0px" y="0px"
	 width="500px" height="300px" viewBox="0 0 500 300" enable-background="new 0 0 500 300" xml:space="preserve">
<g>
	<path fill="#0033A0" d="M204.77,157.281l-23.466,63.285l-2.503-12.862c-5.844-15.764-18.497-32.307-33.233-39.01l21.47,81.263
		l25.378-0.014l37.739-92.662H204.77L204.77,157.281z"/>
	<polygon fill="#0033A0" points="224.885,250.047 239.887,157.188 263.864,157.188 248.851,250.047 224.885,250.047 	"/>
	<path fill="#0033A0" d="M335.83,159.48c-4.739-1.872-12.212-3.907-21.483-3.907c-23.719,0-40.382,12.606-40.527,30.637
		c-0.153,13.357,11.915,20.807,20.985,25.242c9.358,4.542,12.486,7.454,12.458,11.52c-0.092,6.223-7.487,9.056-14.364,9.056
		c-9.585,0-14.69-1.4-22.548-4.854l-3.113-1.478l-3.358,20.777c5.611,2.59,15.967,4.831,26.729,4.947
		c25.171,0,41.546-12.463,41.738-31.71c0.101-10.597-6.304-18.612-20.147-25.233c-8.358-4.302-13.525-7.155-13.448-11.52
		c0.005-3.854,4.335-7.983,13.738-7.983c7.848-0.13,13.496,1.67,17.938,3.571l2.142,1.063L335.83,159.48L335.83,159.48z"/>
	<path fill="#0033A0" d="M397.32,157.284h-18.524c-5.741,0-10.044,1.638-12.578,7.709l-35.593,85.083h25.18
		c0,0,4.119-11.452,5.053-13.964c2.742,0,27.2,0.058,30.694,0.058c0.741,3.238,2.916,13.906,2.916,13.906h22.264L397.32,157.284
		L397.32,157.284z M367.752,217.121c1.993-5.327,9.552-25.956,9.552-25.956c-0.145,0.255,1.969-5.371,3.19-8.844l1.598,8.002
		c0,0,4.604,22.158,5.567,26.798C383.925,217.121,372.428,217.121,367.752,217.121L367.752,217.121z"/>
	<path fill="#FF9E16" d="M159.535,157.233h-38.667l-0.226,1.597c30.064,7.689,49.901,26.571,58.158,48.903l-8.404-42.677
		C168.953,159.186,164.746,157.439,159.535,157.233L159.535,157.233z"/>
	<polygon fill="#0033A0" points="48.34,134.793 33.052,134.793 15.415,55.292 32.314,52.468 44.378,114.683 75.116,53.291 
		91.345,53.291 48.34,134.793 	"/>
	<path fill="#0033A0" d="M127.849,108.803h-36.46c-0.998,11.056,4.141,15.878,12.845,15.878c7.292,0,13.707-2.707,20.612-7.058
		l-0.057,11.054c-6.768,4.235-14.594,6.941-23.768,6.941c-15.876,0-26.36-9.057-23.211-29.521
		c2.841-18.464,15.617-29.635,30.437-29.635c17.051,0,22.724,12.819,20.244,28.932C128.311,106.569,127.974,107.981,127.849,108.803
		L127.849,108.803z M106.391,86.222c-5.647,0-10.921,4.468-13.41,13.761h22.58C115.979,91.162,113.212,86.222,106.391,86.222
		L106.391,86.222z"/>
	<path fill="#0033A0" d="M151.613,101.865l-5.013,32.578h-14.114l8.745-56.807h11.995l0.008,11.409
		c4.778-6.587,11.272-12.113,20.166-12.583l0.081,13.994C164.57,91.045,156.553,95.749,151.613,101.865L151.613,101.865z"/>
	<path fill="#0033A0" d="M173.295,134.443l8.745-56.807h14.112l-8.742,56.807H173.295L173.295,134.443z M190.678,68.111
		c-4.703,0-7.96-3.293-7.236-7.997c0.743-4.822,5.03-8.232,9.733-8.232c4.589,0,7.828,3.411,7.085,8.232
		C199.536,64.817,195.267,68.111,190.678,68.111L190.678,68.111z"/>
	<path fill="#0033A0" d="M235.236,62.113c-4.823,0-7.735,2.116-8.515,7.174l-1.286,8.349h10.82l-0.01,11.526h-12.583l-6.97,45.281
		h-13.996l6.971-45.281h-8.234l1.773-11.526h8.234l1.502-9.761c1.938-12.583,10.659-17.288,22.301-17.288
		c2.471,0,4.315,0.236,5.693,0.47l0.105,11.525C239.667,62.348,237.587,62.113,235.236,62.113L235.236,62.113z"/>
	<path fill="#0033A0" d="M235.389,134.443l8.743-56.807h14.112l-8.742,56.807H235.389L235.389,134.443z M252.773,68.111
		c-4.704,0-7.96-3.293-7.236-7.997c0.742-4.822,5.031-8.232,9.733-8.232c4.591,0,7.829,3.411,7.088,8.232
		C261.632,64.817,257.364,68.111,252.773,68.111L252.773,68.111z"/>
	<path fill="#0033A0" d="M312.965,108.803h-36.459c-0.997,11.056,4.138,15.878,12.843,15.878c7.294,0,13.708-2.707,20.613-7.058
		l-0.058,11.054c-6.771,4.235-14.595,6.941-23.771,6.941c-15.874,0-26.359-9.057-23.207-29.521
		c2.839-18.464,15.614-29.635,30.435-29.635c17.053,0,22.727,12.819,20.244,28.932C313.427,106.569,313.089,107.981,312.965,108.803
		L312.965,108.803z M291.504,86.222c-5.645,0-10.917,4.468-13.405,13.761h22.577C301.094,91.162,298.327,86.222,291.504,86.222
		L291.504,86.222z"/>
	<path fill="#0033A0" d="M354.765,134.443l0.037-7.881c-4.743,4.823-10.923,9.057-18.799,9.057c-11.88,0-20.046-8.821-17.097-27.993
		c3.257-21.167,16.346-30.577,29.52-30.577c5.409,0,9.62,0.942,12.849,2.116l4.216-27.402l14.459-2.234l-13.069,84.914H354.765
		L354.765,134.443z M359.48,90.81c-3.271-1.648-5.851-2.471-10.673-2.471c-7.41,0-13.742,5.998-15.662,18.465
		c-1.698,11.054,2.209,16.229,8.44,16.229c5.178,0,9.643-3.056,14.132-7.762L359.48,90.81L359.48,90.81z"/>
	<path fill="#0033A0" d="M410.116,134.977c-6.684,0-12.132-1.07-17.198-2.852l9.281-60.311l10.947-1.692l-4.013,26.102
		c3.2-2.852,7.646-5.702,13.078-5.702c9.09,0,15.172,6.772,12.954,21.203C432.726,127.582,422.944,134.977,410.116,134.977
		L410.116,134.977z M417.997,99.964c-3.561,0-7.14,2.407-10.308,5.615l-3.002,19.508c2.108,0.801,3.566,1.157,6.593,1.157
		c6.771,0,11.5-4.097,13.012-13.896C425.566,104.064,422.808,99.964,417.997,99.964L417.997,99.964z"/>
	<path fill="#0033A0" d="M460.35,136.758c-5.461,10.6-10.868,13.896-19.155,13.896c-1.871,0-2.911-0.178-3.85-0.445l-0.067-8.819
		c1.371,0.356,2.844,0.623,4.895,0.623c3.118,0,5.831-1.424,7.646-4.542l1.42-2.851l-9.065-42.406l11.354-1.424l5.265,30.645
		l14.237-30.021h10.606L460.35,136.758L460.35,136.758z"/>
</g>
</svg>
